<?xml version="1.0" encoding="utf-8" ?>
<svg baseProfile="full" height="380px" version="1.1" viewBox="0 0 280 380" width="280px" xmlns="http://www.w3.org/2000/svg" xmlns:ev="http://www.w3.org/2001/xml-events" xmlns:xlink="http://www.w3.org/1999/xlink"><defs /><path d="M0,0 L15,0 L30,0 L45,0 L60,0 L75,0 L90,0 L105,0 L120,0 L135,0 L150,0 L165,0 L180,0 L195,0 L210,0 L225,0 L240,0 L255,0 L270,0 L279,3 M0,11 M279,18 M0,26 M279,33 M135,38 L127,40 M145,43 M129,47 M0,51 M279,54 M142,58 M130,62 M0,66 L0,69 M139,71 M0,74 M138,75 M279,77 M0,80 M139,82 L134,84 M149,86 M132,88 L124,90 M279,91 M133,93 M0,95 M141,96 L128,98 L139,99 M165,101 L166,103 M118,105 M161,107 M115,110 M279,111 L279,112 M151,113 M65,115 M185,115 M169,116 L156,117 M137,118 L125,119 M155,119 L155,120 L156,121 L155,122 M0,124 M110,125 M182,126 M69,128 M0,129 M147,130 M109,131 M194,132 M173,133 L166,134 M52,135 M170,135 M51,136 M183,136 L177,137 M147,138 M0,139 M145,139 L140,140 M50,141 M167,141 M53,142 M184,142 M60,143 M0,144 M199,144 M174,145 M159,146 L158,147 M82,148 M125,149 M222,150 M0,152 M175,152 L163,153 M83,154 M279,154 M83,156 M279,156 M191,157 L180,158 M134,159 M112,160 M181,160 L179,161 M162,162 M132,163 L120,164 M81,165 M210,165 L207,166 M185,167 M142,168 M116,169 M279,169 L279,170 M155,171 M58,172 M190,172 M126,173 M0,174 M162,174 M50,175 M154,175 M50,176 M175,176 M49,177 M164,177 M0,178 M176,178 M0,179 M176,179 M66,180 M190,180 M76,181 M216,181 M143,182 M225,182 M150,183 M202,183 M279,183 M158,184 M201,184 M72,185 M189,185 M55,186 M203,186 M147,187 M279,187 M151,188 M45,189 M190,189 M63,190 M224,190 M131,191 M178,191 M44,192 L40,193 M192,193 M125,194 M279,194 L279,195 M52,197 M94,198 L109,198 L116,199 L115,200 M89,201 M202,201 M181,202 L189,203 M173,204 M0,205 M175,205 M220,205 M65,206 M208,206 M42,207 M167,207 M31,208 M154,208 M31,209 M172,209 M70,210 M195,210 M80,211 M191,211 M101,212 M210,212 M81,213 M206,213 M138,214 M279,214 M172,215 M115,216 M195,216 M130,217 M201,217 M125,218 M221,218 M73,219 M156,219 M35,220 M165,220 M32,221 M133,221 M242,221 M116,222 M221,222 M55,223 M176,223 M65,224 M161,224 M279,224 M124,225 M177,225 M217,225 M86,226 M194,226 M36,227 M123,227 M43,228 M127,228 M209,228 M33,229 M113,229 M203,229 M61,230 M127,230 M33,231 M118,231 M201,231 M72,232 M182,232 M60,233 M136,233 M0,234 M105,234 M239,234 M117,235 M238,235 M127,236 M202,236 M51,237 M169,237 M279,237 M118,238 M212,238 M59,239 M163,239 M279,239 M89,240 M203,240 M38,241 M118,241 M194,241 M52,242 M232,242 M80,243 M279,243 M148,244 M180,244 M45,245 M163,245 M231,245 M142,246 M173,246 M237,246 M150,247 M192,247 M44,248 M209,248 M140,249 M233,249 M92,250 M227,250 M98,251 M204,251 M53,252 M124,252 M247,252 M131,253 M33,254 M185,254 L196,255 M110,256 M279,256 M123,257 M146,257 M38,258 M105,258 M240,258 M95,259 M42,260 M207,260 M39,261 M150,261 M236,261 L222,262 M110,263 M210,263 M52,264 M132,264 M178,264 L193,264 M107,265 M147,265 M245,265 M106,266 M123,267 M186,267 M126,268 M195,268 M39,269 M160,269 M251,269 M150,270 M238,270 M131,271 M216,271 M37,272 M148,272 M234,272 M58,273 M148,273 M240,273 M63,274 M182,274 M279,274 M69,275 M170,275 M253,275 M79,276 M180,276 M19,277 M186,277 M17,278 M186,278 M110,279 M190,279 M110,280 M176,280 M231,280 M123,281 M236,281 M136,282 M95,283 M250,284 M269,284 M29,285 L32,286 M232,286 M33,287 L44,288 M99,289 M64,290 L61,291 M78,292 M0,294 M112,294 M180,294 M60,295 M122,295 M164,295 M198,295 M134,296 M156,296 L144,297 M60,298 M79,299 M224,299 L239,299 M31,300 M268,300 M242,301 M35,302 M81,303 L83,304 M279,305 M110,307 M38,308 M77,309 L75,310 M257,310 M275,310 M39,312 M238,312 L242,313 L235,315 M85,316 L96,318 L96,320 M272,320 M0,322 M159,323 L161,324 M52,325 M90,325 M170,325 L185,325 M279,325 M149,326 M0,327 M111,327 M18,328 M279,328 M84,330 M14,331 M261,331 M77,332 M166,332 L181,332 M23,333 M154,333 M192,333 M215,333 M42,334 M234,334 M146,335 M14,336 M242,336 M50,338 L52,339 M113,339 M145,339 M170,339 M205,339 M128,340 M226,340 M70,341 M164,341 M273,341 M65,342 M97,342 M167,342 M239,342 M154,343 M211,343 M262,343 M198,344 M259,344 M100,345 M150,346 M48,347 M197,347 M217,347 M68,348 M244,348 M158,349 M223,350 M0,352 M222,352 M46,353 M87,353 M247,353 M275,353 M77,354 L87,355 M279,355 L279,356 M0,358 M97,358 M0,359 M98,359 L84,360 M171,360 M126,361 M66,362 M127,362 M60,363 L59,364 M107,364 M85,365 M68,366 M53,367 M0,373 L3,379 L18,379 L33,379 L48,379 L63,379 L78,379 L93,379 L108,379 L123,379 L138,379 L153,379 L168,379 L183,379 L198,379 L213,379 L228,379 L243,379 L258,379 L273,379" fill="none" stroke="#D4AF37" stroke-linecap="round" stroke-linejoin="round" stroke-width="1.3" style="stroke-dasharray: 2012; stroke-dashoffset: 2012; animation: draw-line 2s ease-out 0.0s forwards; opacity: 0;" /><path d="M138,38 L137,40 L145,42 M131,47 L141,51 L134,56 L142,60 L133,65 L135,68 L139,73 L143,75 L142,78 L146,80 L146,82 L146,85 M133,88 L125,90 M143,91 L147,93 M124,96 L123,98 M151,99 M122,101 L121,102 L121,104 L117,106 M154,107 M175,108 M130,110 M177,110 M148,111 L143,112 M122,113 L117,114 M171,114 L162,115 M114,116 L111,118 L109,120 L110,121 L111,122 M190,122 M142,123 L134,124 M67,126 L62,128 M186,129 M111,131 M71,133 M164,134 L166,135 M110,136 M189,136 M74,137 L62,138 L58,139 M192,139 M145,140 L138,141 M71,142 M168,142 M108,143 M169,143 M53,144 M177,144 M56,145 M197,145 M81,146 M222,146 M123,147 M44,148 M127,148 M69,149 M195,149 M72,150 M172,150 M118,151 M175,151 M117,152 M183,152 L178,153 M131,154 L118,155 M214,155 M153,156 M129,157 M107,158 M188,158 M160,159 M104,160 M179,160 M120,161 M162,161 M125,162 M189,162 M141,163 M116,164 M78,165 M189,165 M153,166 L143,167 M127,168 M63,169 M186,169 M67,170 M148,170 M72,171 M185,171 M129,172 L120,173 M91,174 M66,175 M177,175 M126,176 M65,177 M177,177 M120,178 M190,178 M124,179 M207,179 M142,180 M72,181 M206,181 M141,182 M206,182 M141,183 M185,183 M75,184 M193,184 M229,184 M153,185 M233,185 M144,186 M217,186 M143,187 M53,188 M168,188 M72,189 M189,189 M84,190 M202,190 M125,191 M229,191 M64,192 M131,192 M177,192 M231,192 M69,193 M158,193 M181,193 M43,194 M155,194 M42,195 M191,195 M94,196 M115,196 M49,197 M106,197 M39,198 M171,198 M51,199 M176,199 M236,199 M184,200 M143,201 M88,202 M35,203 M141,203 M37,204 M66,204 M231,204 M59,205 M181,205 M35,206 M153,206 M203,206 M32,207 M88,207 M189,207 M218,207 M115,208 M194,208 M79,209 M161,209 M79,210 M171,210 M220,210 M146,211 M215,211 M151,212 M29,213 M196,213 M103,214 M86,215 M200,215 L196,216 M139,217 M117,218 M188,218 M133,219 M231,219 M123,220 M192,220 M118,221 M171,221 M54,222 M150,222 M230,222 M119,223 M175,223 M242,223 M135,224 M191,224 M54,225 M154,225 M200,225 M122,226 M171,226 M221,226 M129,227 M183,227 M208,227 M44,228 M143,228 M198,228 M63,229 M144,229 M202,229 M66,230 M147,230 M226,230 M86,231 M161,231 M53,232 M131,232 M233,232 M120,233 M200,233 M73,234 M171,234 M34,235 M132,235 M201,235 M54,236 M169,236 M33,237 M138,237 M233,237 M89,238 M183,238 M46,239 M132,239 M233,239 M64,240 M151,240 M33,241 M141,241 M33,242 M228,242 M196,243 M56,244 M242,244 M166,245 M195,245 M112,246 M193,246 M56,247 M243,247 M204,248 L200,249 M53,250 M242,250 M138,251 M43,252 M232,252 M115,253 M245,253 M138,254 M114,255 L124,256 M234,256 M137,257 M248,257 M202,258 M47,259 M248,259 M144,260 L152,261 L149,262 M243,262 L246,263 M149,264 M45,265 M122,265 M166,265 M187,265 M42,266 M139,266 M161,266 M247,266 M136,267 M194,267 M129,268 M170,268 M112,269 M189,269 M101,270 M181,270 M251,270 M153,271 M248,271 M153,272 M217,272 M90,273 M171,273 M226,273 M52,274 M128,274 M198,274 M35,275 M90,275 M155,275 M231,275 M48,276 M87,276 M182,276 M22,277 M67,277 M95,277 M221,277 M35,278 M85,278 M204,278 M31,279 M161,279 M245,279 M95,280 M186,280 M248,280 M119,281 M176,281 M221,281 M119,282 M165,282 M191,282 M31,283 M134,283 M41,284 M254,284 L252,285 M272,285 M105,286 M268,286 M93,287 M236,287 M46,288 M70,288 M235,288 M51,289 M93,289 M48,290 M238,290 M60,291 M18,292 M112,292 M181,292 M49,293 M119,293 M162,293 M181,293 M241,293 M106,294 M129,294 M154,294 M192,294 M49,295 M138,295 M201,295 M51,296 M146,296 M19,297 M132,297 M223,297 M245,297 M19,298 M101,298 M229,298 M261,298 M27,299 M244,299 M23,300 M251,300 M37,301 M261,301 L258,302 L270,303 M57,305 M94,306 M252,307 M115,308 L112,309 M256,310 L263,311 M93,312 M272,312 M69,313 M41,314 M74,314 M45,315 M86,316 M47,318 M269,318 M95,319 M275,319 M86,321 M52,323 M93,323 M62,324 M199,324 M62,326 M172,326 M190,326 M81,327 M164,327 M182,327 M204,327 M109,328 M202,328 M27,329 M211,329 M74,330 M167,330 M185,330 M73,331 M147,331 M167,331 M185,331 M204,331 M23,332 M153,332 M194,332 M238,332 M62,333 M14,334 M209,334 M238,335 M154,339 M55,340 M126,340 M155,340 M202,340 M107,341 M143,341 M202,341 M70,342 M150,342 M240,342 M60,343 M80,343 M129,343 M209,343 M42,344 M78,344 M123,344 M195,344 M254,344 M84,345 M203,345 M252,345 M45,346 M85,346 M196,346 M220,346 M266,346 M142,347 L136,348 M72,349 M53,350 M148,350 M52,351 M142,351 M255,351 M59,352 M242,352 M260,352 M140,353 M265,353 M70,354 M189,354 M45,355 M96,355 L82,356 M154,356 M68,357 M149,357 M80,358 M126,358 M100,359 M171,359 M88,360 M137,360 M75,361 M131,361 M89,362 M56,363 M97,363 M74,364 M93,364 M48,366" fill="none" stroke="#D4AF37" stroke-linecap="round" stroke-linejoin="round" stroke-width="1.3" style="stroke-dasharray: 2036; stroke-dashoffset: 2036; animation: draw-line 2s ease-out 2.4s forwards; opacity: 0;" /><path d="M133,41 L142,41 L142,42 L132,45 L134,47 L138,49 L139,51 L135,54 L136,56 L138,58 L140,60 L134,63 L135,65 M132,78 L142,82 L145,86 L145,89 M125,97 M150,99 M133,101 L129,102 L144,102 L130,103 L140,103 L138,104 M123,105 L132,106 L128,107 M165,107 M122,108 M146,108 M167,108 M124,109 M142,109 L155,109 M125,110 M152,110 M123,111 M168,111 M121,112 M171,112 L163,113 L154,114 M124,122 L126,123 L127,124 L113,125 M130,125 M115,126 M131,126 M65,127 M137,128 M61,130 L62,131 L66,132 L68,133 M112,134 M64,135 L56,136 L67,136 L64,137 M110,138 M73,140 M111,141 L111,142 L110,143 M75,144 M144,144 M179,144 M110,145 M127,145 M150,145 M184,145 L196,145 M122,146 M162,146 M184,146 L195,146 M75,147 M129,147 M193,147 M54,148 M110,148 M165,148 L178,148 M57,149 M117,149 M168,149 L177,149 M194,149 M108,150 M157,150 M179,150 M45,151 M67,151 M108,151 M158,151 M61,152 L70,152 M116,152 M186,152 M109,153 M136,153 M108,154 M153,154 M111,155 M151,155 M113,156 M151,156 M119,157 M138,157 M118,158 M78,159 M48,160 M122,160 M143,160 M119,161 M153,161 M109,162 M49,163 M128,163 M77,164 M148,164 M104,165 M151,165 M110,166 M58,167 M74,167 M52,168 L62,168 L72,168 M50,169 M67,169 M111,169 L113,170 M152,171 M118,172 L118,173 L117,175 L117,177 M89,179 M121,180 L120,181 M209,181 M127,183 M85,185 L86,186 M232,186 L225,187 L237,187 L228,188 M125,189 M231,189 M122,190 M228,190 M76,191 M142,191 M72,192 M120,192 M148,192 M65,193 M84,193 M168,193 M59,194 L70,194 M92,194 L101,194 L110,194 M165,194 L176,194 L185,194 M61,195 L70,195 M98,195 L107,195 M151,195 M167,195 L182,195 M236,195 M89,196 M154,196 L164,196 M235,196 M59,197 M156,197 M173,197 L183,197 L195,197 M59,198 M177,198 L187,198 M40,199 M145,199 M41,200 M86,200 M228,200 M62,201 M165,201 M43,202 L53,202 L65,202 M166,202 M45,203 M86,203 M193,203 M56,204 M153,204 M192,204 M70,205 M143,205 M161,205 M71,206 M145,206 M195,206 M81,207 M151,207 M80,208 M149,208 M213,208 M84,209 M207,209 L216,209 M200,210 L202,211 M87,213 M198,214 M139,218 M190,220 L190,221 M169,222 M151,223 M233,223 M172,224 M242,224 M171,225 M235,225 M141,226 M236,226 M169,227 M235,227 M154,228 M199,228 M238,228 M152,229 M197,229 M244,229 M195,230 M140,231 M231,231 M146,232 M229,232 M143,233 M194,233 M120,234 M230,234 M141,235 M66,236 M242,236 M148,237 M44,238 M148,238 L140,239 M245,239 M199,240 M145,242 M243,243 M198,245 M53,247 M241,249 L237,252 L237,254 L245,255 L246,259 L246,262 M204,264 M115,266 L112,267 M201,267 M146,268 L143,269 L145,270 M201,271 M249,271 M145,273 M212,274 M38,275 M214,275 M37,276 M90,276 M153,276 M218,276 M50,277 L61,277 M146,277 L157,277 M27,278 M57,278 L67,278 M94,278 M153,278 M22,279 M63,279 L73,279 L82,279 M159,279 M41,280 M78,280 L92,280 M219,280 M48,281 M200,281 M22,282 M116,282 M187,282 M220,282 M112,283 M129,283 M168,283 L179,283 L191,283 M219,283 M117,284 L127,284 M163,284 L174,284 L183,284 L193,284 M46,285 M123,285 L132,285 M219,285 M55,286 L65,286 M108,286 M140,286 M54,287 L65,287 M107,287 M260,287 L269,287 M47,288 M76,288 M108,288 M263,288 L272,288 M75,289 M106,289 M229,289 M256,289 M30,290 M102,290 L113,290 M171,290 L180,290 M223,290 L232,290 M278,290 M92,291 M113,291 L123,291 M155,291 L164,291 L174,291 L183,291 L193,291 M238,291 M27,292 M97,292 M117,292 L126,292 L136,292 L148,292 L158,292 M188,292 L197,292 M22,293 M83,293 M133,293 L142,293 L153,293 M207,293 M35,294 M143,294 M205,294 M258,294 M98,295 M215,295 L224,295 L233,295 M261,295 L271,295 M21,296 M82,296 M215,296 L224,296 L233,296 M257,296 L268,296 M20,297 L31,297 M51,297 M244,297 M22,298 M45,298 L57,298 M19,299 M43,299 M84,299 M43,300 M95,300 L84,301 L85,302 M38,303 M253,303 L250,304 M89,305 L88,306 M56,307 L56,308 M88,309 L89,310 L91,311 L89,312 M58,313 M261,313 L270,313 M59,314 M264,314 L273,314 M60,315 M88,315 M50,316 M67,316 M93,316 M268,316 M50,317 M93,317 M268,317 L277,317 M92,318 L93,319 M48,321 L59,321 M93,321 M56,322 M88,322 L76,323 L64,326 M159,327 M70,328 M162,328 L171,328 L180,328 L189,328 L201,328 M74,329 M150,329 L165,329 L174,329 L183,329 M26,330 M151,330 L160,330 M193,330 L202,330 L211,330 M66,331 M17,333 M51,342 M111,342 M144,342 M106,343 L116,343 M45,344 M92,344 M134,344 M205,344 M278,344 M73,345 M91,345 M122,345 L135,345 M274,345 M76,346 M92,346 M121,346 L131,346 M251,346 M79,347 M104,347 M252,347 L262,347 M76,348 L91,348 M134,348 M265,348 L277,348 M88,349 L102,349 M251,349 M273,349 M84,350 M247,350 L256,350 M57,351 M145,351 M56,352 M136,352 M57,353 M137,353 M84,354 M142,354 M81,355 M139,355 L152,355 M50,356 M114,356 L123,356 M42,357 L52,357 M116,357 L126,357 M57,358 M131,358 M41,359 M101,359 M130,359 M48,360 M108,360 L102,361 M73,362 M55,363" fill="none" stroke="#D4AF37" stroke-linecap="round" stroke-linejoin="round" stroke-width="1.3" style="stroke-dasharray: 2128; stroke-dashoffset: 2128; animation: draw-line 2s ease-out 4.8s forwards; opacity: 0;" /><path d="M134,43 L138,43 L134,45 L135,47 L136,49 L137,51 L137,55 L137,59 L138,61 L137,63 M149,102 L148,103 M128,104 L132,104 L136,104 L149,104 M130,105 L134,105 L140,105 L144,105 M125,106 M151,106 L138,107 L146,107 L150,107 M125,108 M144,108 M166,109 L170,109 L165,110 L171,110 L167,111 M123,125 L124,126 L136,126 M117,127 L121,127 L130,127 L134,127 L120,128 L129,128 L115,129 M131,129 L136,129 L134,130 M114,131 M62,132 M134,132 M114,133 M60,134 L64,134 M115,134 L115,135 L115,136 L114,137 L114,138 L114,139 L114,140 L114,141 L114,142 L125,142 L114,143 L126,143 L136,143 M118,144 L123,144 L127,144 M194,144 M118,145 M136,145 M193,145 M117,146 M139,146 L143,146 M164,146 M193,146 M130,147 L140,147 L147,147 M166,147 M182,147 L186,147 L190,147 M111,148 M141,148 L150,148 M182,148 L192,148 M56,149 M131,149 M186,149 M50,150 M76,150 M131,150 M150,150 M190,150 M53,151 L58,151 M114,151 M134,151 M153,151 M57,152 M110,152 M150,152 M58,153 L63,153 L67,153 L71,153 L78,153 M139,153 M49,154 M67,154 L74,154 M111,154 M138,154 M48,155 M64,155 L70,155 M110,155 M150,155 M77,156 M150,156 M77,157 M150,157 M76,158 M144,158 M51,159 M141,159 L148,159 M74,160 M149,160 M73,161 M149,161 M73,162 M150,162 M75,163 M150,163 M60,164 L64,164 M106,164 M51,165 L58,165 L68,165 L74,165 M51,166 L58,166 L62,166 L66,166 M104,166 M52,167 L56,167 L70,167 M103,167 M73,168 M110,168 L110,169 L110,170 L111,171 L112,172 L113,173 L112,174 M94,175 M116,175 L116,176 L116,177 L116,178 L117,179 L118,180 L119,181 L120,182 L124,182 L119,183 M88,184 L87,185 L87,186 L87,187 M228,187 M122,188 M230,188 M87,189 M120,189 M235,189 M116,190 L121,190 M88,191 L97,191 L101,191 L105,191 L109,191 L117,191 M86,192 L93,192 M115,192 M75,193 L90,193 L95,193 L99,193 L103,193 L107,193 L111,193 M146,193 M73,194 M90,194 M149,194 M77,195 L81,195 L89,195 M170,195 M63,196 L67,196 L71,196 L78,196 M146,196 M167,196 L179,196 L183,196 L187,196 M65,197 L72,197 L84,197 M150,197 L162,197 L166,197 M46,198 M68,198 M146,198 L154,198 L158,198 M47,199 M67,199 M148,199 L158,199 M193,199 L197,199 M59,200 L63,200 L68,200 M148,200 M164,200 M43,201 L47,201 M82,201 M154,201 L163,201 M68,202 L73,202 M146,202 L153,202 M194,202 M76,203 M145,203 L153,203 L157,203 M194,203 M72,204 L76,204 L83,204 M149,204 M196,204 M82,205 M197,205 M80,206 M146,206 M198,206 L199,207 L200,208 L201,209 M231,225 L230,226 L229,227 L230,228 M195,231 M143,234 L147,234 L142,236 L147,237 L146,239 M239,253 M202,268 L209,274 L209,276 L216,276 L211,277 L217,277 M55,278 M91,278 M155,278 M209,278 M51,279 L58,279 M88,279 M148,279 L152,279 M209,279 M50,280 L57,280 L64,280 L68,280 M87,280 M152,280 L158,280 M217,280 M60,281 L72,281 L76,281 L80,281 L84,281 L90,281 M150,281 M207,281 M48,282 M71,282 L86,282 M145,282 M206,282 M47,283 L53,283 L57,283 M75,283 L79,283 L83,283 M145,283 M201,283 L205,283 M48,284 L60,284 L71,284 M114,284 M159,284 M188,284 M206,284 M50,285 L54,285 L58,285 L63,285 L67,285 L71,285 L78,285 M116,285 L120,285 M162,285 L166,285 L170,285 L176,285 L180,285 L184,285 L189,285 L193,285 L197,285 L202,285 M60,286 M79,286 L90,286 M116,286 L123,286 L127,286 L131,286 L144,286 M186,286 L190,286 M217,286 M75,287 L79,287 L90,287 M118,287 M136,287 L140,287 M185,287 M218,287 M90,288 M116,288 M133,288 M159,288 L163,288 M189,288 M219,288 M90,289 M111,289 L115,289 M141,289 L152,289 L156,289 L168,289 L172,289 L176,289 L180,289 L184,289 L199,289 M220,289 M261,289 L265,289 L269,289 L273,289 M90,290 M118,290 L122,290 L126,290 L130,290 L143,290 L147,290 L157,290 L161,290 M188,290 L192,290 L196,290 L200,290 L205,290 M258,290 M30,291 M91,291 M135,291 L139,291 L143,291 L150,291 L154,291 M209,291 L224,291 L228,291 L232,291 M258,291 L269,291 L276,291 M28,292 M90,292 M146,292 M205,292 L210,292 L216,292 M236,292 M267,292 M31,293 M93,293 M213,293 M261,293 L270,293 M22,294 L26,294 M92,294 L97,294 M213,294 L217,294 L221,294 L225,294 L229,294 L233,294 L237,294 M262,294 L266,294 L271,294 L275,294 L279,294 M31,295 M86,295 M260,295 M23,296 L27,296 M94,296 L84,297 M48,298 M94,298 M51,299 M93,299 M50,300 L55,300 M92,300 M43,301 L51,301 M89,301 M45,302 M88,302 M53,303 L41,304 M90,304 M52,305 L43,306 M90,306 M52,307 L45,308 L44,309 M90,309 M52,310 L46,311 L54,311 L53,312 L51,313 L50,314 M90,314 M55,315 M261,315 L265,315 L269,315 L273,315 M56,316 L51,317 L60,317 L64,317 M90,317 M55,318 L70,318 M51,319 M68,319 M91,319 M54,320 L58,320 L62,320 M90,320 M71,321 L71,322 L72,323 L72,324 L69,325 L74,325 L75,326 L69,327 L73,327 M108,344 L112,344 L116,344 L108,346 L113,346 L118,346 M274,346 L278,346 M78,347 L93,347 M109,347 L121,347 L125,347 L130,347 M271,347 L275,347 L279,347 M106,348 L120,348 L127,348 M251,348 M80,349 L84,349 M107,349 M129,349 M264,349 M81,350 M99,350 L103,350 M133,350 M82,351 M105,351 L97,352 M82,353 M114,353 L121,353 L125,353 M102,354 M118,354 L127,354 M55,355 M112,355 L116,355 L120,355 L124,355 L129,355 L136,355 M104,356 M128,356 M53,357 M106,357 M130,357 L134,357 M49,358 L54,358 M108,358 L103,359 M54,360 L52,362" fill="none" stroke="#D4AF37" stroke-linecap="round" stroke-linejoin="round" stroke-width="1.3" style="stroke-dasharray: 2296; stroke-dashoffset: 2296; animation: draw-line 2s ease-out 7.1s forwards; opacity: 0;" /><path d="M148,104 L147,105 M124,127 L125,127 L126,127 L123,128 L127,128 L120,129 L121,129 L122,129 L124,129 L125,129 L126,129 L128,129 L129,129 L130,129 L134,129 M117,130 L118,130 L119,130 L122,130 L123,130 L127,130 L128,130 L131,130 L132,130 L133,130 M117,131 L119,131 L120,131 L121,131 L129,131 L130,131 L131,131 L133,131 M117,132 L118,132 L132,132 L133,132 M117,133 L118,133 L132,133 L134,133 M116,134 L118,134 L132,134 L134,134 M116,135 L118,135 L132,135 L133,135 M116,136 L117,136 L131,136 L133,136 M115,137 L117,137 L131,137 L133,137 M115,138 L116,138 L131,138 L132,138 M115,139 L116,139 L131,139 L132,139 M115,140 L116,140 L120,140 L121,140 L122,140 L123,140 L124,140 L125,140 L126,140 L127,140 L131,140 L132,140 M115,141 L116,141 L118,141 L119,141 L122,141 L123,141 L124,141 L125,141 L128,141 L129,141 L131,141 L133,141 M115,142 L117,142 L119,142 L120,142 L121,142 L126,142 L127,142 L128,142 L130,142 L133,142 M115,143 L117,143 L118,143 L129,143 L133,143 M115,144 L116,144 L130,144 L134,144 M115,145 M131,145 L135,145 M114,146 M132,146 L136,146 L133,147 L137,147 L133,148 L138,148 L139,148 L140,148 L144,148 L145,148 L146,148 L147,148 L134,149 L135,149 L136,149 L141,149 L142,149 L143,149 L148,149 L137,150 L142,150 L143,150 L144,150 L145,150 L146,150 L147,150 L149,150 L138,151 L141,151 L148,151 L150,151 M51,152 L52,152 L53,152 L54,152 L55,152 L56,152 M139,152 L141,152 L147,152 L149,152 M50,153 L53,153 L54,153 L57,153 M140,153 L142,153 L147,153 L148,153 M50,154 L52,154 L55,154 L58,154 M75,154 M141,154 L142,154 L146,154 L148,154 M51,155 L52,155 L56,155 L57,155 L59,155 L60,155 L61,155 L67,155 L68,155 L72,155 L73,155 L74,155 L75,155 M141,155 L143,155 L146,155 L148,155 M51,156 L53,156 L58,156 L59,156 L62,156 L63,156 L64,156 L65,156 L66,156 L69,156 L70,156 L71,156 L75,156 M141,156 L144,156 L145,156 L147,156 M52,157 L53,157 L60,157 L61,157 L62,157 L63,157 L64,157 L65,157 L66,157 L67,157 L68,157 L69,157 L70,157 L71,157 L74,157 M142,157 L143,157 L144,157 L147,157 M52,158 L54,158 M72,158 L73,158 M145,158 L147,158 M52,159 L54,159 M71,159 L73,159 M146,159 L147,159 M53,160 L54,160 M71,160 L73,160 M147,160 L148,160 M53,161 L54,161 M71,161 L72,161 M148,161 M53,162 L54,162 L57,162 L58,162 L59,162 L60,162 L61,162 L62,162 L63,162 L64,162 L65,162 L66,162 L71,162 L72,162 M53,163 L55,163 L56,163 L59,163 L60,163 L61,163 L62,163 L63,163 L64,163 L67,163 L68,163 L69,163 L70,163 L72,163 M53,164 L56,164 L57,164 L58,164 L65,164 L66,164 L67,164 L68,164 L69,164 L70,164 L72,164 M54,165 L55,165 M71,165 L72,165 M106,167 L107,167 L105,168 L107,168 L104,169 L108,169 L103,170 L106,170 L108,170 L102,171 L105,171 L107,171 L108,171 L101,172 L104,172 L107,172 L109,172 L100,173 L103,173 L108,173 L110,173 L99,174 L102,174 L108,174 L111,174 L98,175 L101,175 L109,175 L112,175 M96,176 L97,176 L99,176 L100,176 L110,176 L111,176 L113,176 M95,177 L98,177 L112,177 L114,177 M94,178 L97,178 L112,178 L114,178 M93,179 L96,179 M113,179 L114,179 M92,180 L95,180 M113,180 L115,180 M91,181 L93,181 L94,181 M114,181 L116,181 M91,182 L92,182 M114,182 L117,182 M90,183 L92,183 M115,183 L118,183 M90,184 L92,184 M116,184 L117,184 L119,184 L120,184 L121,184 M90,185 L91,185 M118,185 L122,185 M90,186 L91,186 M119,186 L122,186 M90,187 L91,187 M116,187 L117,187 L118,187 L121,187 L122,187 M90,188 L91,188 M114,188 L115,188 L118,188 L119,188 L120,188 M90,189 L92,189 L93,189 L94,189 L95,189 L96,189 L97,189 L98,189 L99,189 L100,189 L101,189 L102,189 L103,189 L104,189 L105,189 L106,189 L107,189 L108,189 L109,189 L110,189 L111,189 L112,189 L113,189 L115,189 L116,189 L117,189 M89,190 L94,190 L95,190 L96,190 L97,190 L98,190 L99,190 L100,190 L101,190 L102,190 L103,190 L104,190 L105,190 L106,190 L107,190 L108,190 L109,190 L110,190 L114,190 M89,191 L91,191 L92,191 L93,191 M111,191 L112,191 L113,191 M89,192 L90,192 L88,193 M74,196 L75,196 L73,197 L76,197 L77,197 L78,197 L82,197 L83,197 M149,197 M65,198 L66,198 L70,198 L71,198 L72,198 L74,198 L75,198 L76,198 L79,198 L80,198 L81,198 L82,198 M149,198 L150,198 M68,199 L69,199 L73,199 L77,199 L78,199 L79,199 L82,199 M149,199 L151,199 M69,200 L74,200 L75,200 L76,200 L80,200 L82,200 M149,200 L152,200 L153,200 L154,200 L158,200 L159,200 L160,200 M70,201 L71,201 L72,201 L73,201 L74,201 L77,201 L78,201 L80,201 L81,201 M148,201 L151,201 L152,201 L153,201 L158,201 L159,201 M75,202 L76,202 L77,202 L79,202 L81,202 M148,202 L150,202 M78,203 L79,203 L80,203 L81,203 M148,203 L149,203 M81,204 L82,204 M211,278 L212,278 L213,278 L214,278 L211,279 L214,279 M54,280 L55,280 M155,280 M211,280 L215,280 M52,281 L53,281 L56,281 L57,281 L58,281 M148,281 L152,281 L153,281 L154,281 L156,281 M210,281 L212,281 L213,281 L215,281 M51,282 L52,282 L53,282 L54,282 L55,282 L56,282 L57,282 L59,282 L60,282 L61,282 L62,282 L63,282 M88,282 M147,282 L149,282 L150,282 L151,282 L154,282 L156,282 M209,282 L211,282 L214,282 L215,282 M50,283 L58,283 L59,283 L60,283 L61,283 L62,283 L70,283 L71,283 L72,283 L73,283 L85,283 L86,283 L87,283 M147,283 L149,283 L150,283 L151,283 L152,283 L153,283 L155,283 L157,283 M208,283 L211,283 L214,283 L215,283 M73,284 L74,284 L75,284 L76,284 L77,284 L78,284 L79,284 L80,284 L81,284 L82,284 L83,284 L84,284 L87,284 M147,284 L148,284 L156,284 L158,284 M207,284 L210,284 L214,284 L215,284 M74,285 L75,285 L79,285 L80,285 L81,285 L87,285 M146,285 L148,285 L156,285 L159,285 M204,285 L205,285 L206,285 L208,285 L209,285 L214,285 L215,285 M82,286 L87,286 M145,286 L147,286 L155,286 L160,286 M201,286 L202,286 L203,286 L206,286 L207,286 L214,286 L216,286 M83,287 L87,287 M114,287 L115,287 L116,287 L117,287 M144,287 L148,287 L149,287 L150,287 L151,287 L152,287 L153,287 L154,287 L157,287 L158,287 L159,287 L160,287 L161,287 L162,287 L163,287 M186,287 L187,287 L188,287 L189,287 L190,287 L198,287 L199,287 L200,287 L205,287 L214,287 L216,287 M84,288 L87,288 M130,288 L143,288 L149,288 L150,288 L151,288 L152,288 L153,288 L154,288 L155,288 L156,288 M199,288 L200,288 L201,288 L206,288 L207,288 L208,288 L215,288 L216,288 M85,289 L88,289 M133,289 L142,289 L143,289 L144,289 L145,289 L146,289 L147,289 L148,289 M202,289 L203,289 L204,289 L205,289 L206,289 L209,289 L210,289 L211,289 L215,289 L217,289 M86,290 L88,290 M207,290 L208,290 L209,290 L212,290 L213,290 L214,290 L218,290 M86,291 L88,291 M210,291 L211,291 L212,291 L215,291 L216,291 L217,291 L218,291 L219,291 M86,292 L89,292 M213,292 L214,292 M261,292 L262,292 L268,292 L269,292 L270,292 L271,292 L272,292 M87,293 L90,293 L87,294 L91,294 L87,295 L89,295 L92,295 L87,296 L88,296 L90,296 L93,296 L87,297 L89,297 L92,297 L87,298 L91,298 L88,299 L90,299 L89,300 M48,301 L49,301 L50,301 L47,302 L51,302 L52,302 L44,303 L45,303 L46,303 L48,303 L49,303 L52,303 L44,304 L47,304 L50,304 L51,304 L45,305 L47,305 L50,305 L51,305 L46,306 L47,306 L50,306 L51,306 L46,307 L48,307 L50,307 L51,307 L46,308 L49,308 L51,308 L47,309 L48,309 L51,309 L49,310 L51,310 L50,311 L52,311 L51,312 L52,312 L52,313 L53,314 L53,315 L54,315 L53,316 L55,316 L54,317 L55,317 L56,317 L65,320 L66,320 L67,320 L68,320 L69,320 L66,321 L70,321 L67,322 L70,322 L68,323 L71,323 L68,324 L69,324 L70,324 L71,324 L68,325 L72,325 M110,347 L111,347 L112,347 L113,347 L114,347 L115,347 L116,347 L109,348 L111,348 L112,348 L113,348 L114,348 L117,348 L108,349 L110,349 L115,349 L116,349 L118,349 L119,349 L120,349 L124,349 L125,349 L126,349 L127,349 L128,349 M107,350 L110,350 L117,350 L121,350 L122,350 L123,350 L129,350 L130,350 M106,351 L109,351 L112,351 L113,351 L114,351 L115,351 L116,351 L131,351 M103,352 L104,352 L105,352 L107,352 L108,352 L110,352 L111,352 L114,352 L115,352 L116,352 L117,352 L121,352 L122,352 L123,352 L124,352 L125,352 L131,352 M102,353 L106,353 L108,353 L109,353 L111,353 L112,353 L113,353 L118,353 L119,353 L120,353 L126,353 L127,353 L128,353 L131,353 M103,354 L107,354 L110,354 M129,354 L130,354 L131,354 L132,354 M104,355 L108,355 L109,355 L105,356 L106,356 L107,356" fill="none" stroke="#D4AF37" stroke-linecap="round" stroke-linejoin="round" stroke-width="1.3" style="stroke-dasharray: 3644; stroke-dashoffset: 3644; animation: draw-line 2s ease-out 9.5s forwards; opacity: 0;" /><path d="M124,130 L125,130 L126,130 L122,131 L123,131 L125,131 L127,131 L128,131 L119,132 L120,132 L121,132 L123,132 L124,132 L126,132 L127,132 L129,132 L130,132 L131,132 L119,133 L121,133 L122,133 L128,133 L129,133 L131,133 L119,134 L120,134 L130,134 L131,134 L119,135 L120,135 L129,135 L131,135 L118,136 L120,136 L129,136 L130,136 L118,137 L119,137 L129,137 L130,137 L117,138 L120,138 L121,138 L122,138 L123,138 L124,138 L125,138 L126,138 L127,138 L128,138 L130,138 L117,139 L120,139 L121,139 L122,139 L123,139 L124,139 L125,139 L126,139 L127,139 L130,139 L117,140 L118,140 L119,140 L128,140 L129,140 L130,140 L117,141 L130,141 M142,151 L143,151 L144,151 L145,151 L146,151 L147,151 L142,152 L146,152 L143,153 L146,153 M53,154 L54,154 M143,154 L145,154 M53,155 L55,155 M144,155 L145,155 M54,156 L56,156 L57,156 L54,157 L58,157 L59,157 L55,158 L57,158 L58,158 L60,158 L61,158 L62,158 L63,158 L64,158 L65,158 L66,158 L67,158 L68,158 L69,158 L70,158 L71,158 M55,159 L56,159 L59,159 L68,159 L70,159 M55,160 L57,160 L58,160 L67,160 L69,160 L70,160 M55,161 L57,161 L58,161 L59,161 L60,161 L61,161 L62,161 L63,161 L64,161 L65,161 L66,161 L68,161 L70,161 M55,162 L56,162 L67,162 L68,162 L69,162 L70,162 M106,171 L105,172 L106,172 L104,173 L107,173 L103,174 L105,174 L107,174 L102,175 L104,175 L106,175 L108,175 L101,176 L103,176 L107,176 L109,176 L99,177 L100,177 L102,177 L108,177 L110,177 L111,177 L98,178 L100,178 L101,178 L109,178 L111,178 L97,179 L99,179 L110,179 L112,179 M96,180 L98,180 L111,180 L112,180 M95,181 L97,181 L111,181 L113,181 M93,182 L94,182 L96,182 M112,182 L113,182 M93,183 L95,183 M112,183 L114,183 M93,184 L94,184 M113,184 L115,184 M92,185 L94,185 M114,185 L116,185 L117,185 M92,186 L93,186 M113,186 L116,186 L117,186 L118,186 M92,187 L94,187 L95,187 L96,187 L97,187 L98,187 L99,187 L100,187 L101,187 L102,187 L103,187 L104,187 L105,187 L106,187 L107,187 L108,187 L109,187 L110,187 L111,187 L112,187 L114,187 L115,187 M92,188 L93,188 L94,188 L95,188 L96,188 L97,188 L98,188 L99,188 L100,188 L101,188 L102,188 L103,188 L104,188 L105,188 L106,188 L107,188 L108,188 L109,188 L110,188 L111,188 L112,188 L113,188 M74,199 L75,199 L76,199 L77,200 L78,200 L79,200 L79,201 M212,282 L213,282 M154,283 M212,283 L213,283 M149,284 L150,284 L151,284 L152,284 L153,284 L155,284 M211,284 L213,284 M149,285 L155,285 M210,285 L213,285 M148,286 L149,286 L150,286 L151,286 L152,286 L153,286 L154,286 M208,286 L209,286 L213,286 L206,287 L207,287 L208,287 L213,287 L209,288 L210,288 L211,288 L214,288 L212,289 L213,289 L214,289 M89,296 M48,304 L49,304 L48,305 L49,305 L48,306 L49,306 L49,307 M111,349 L112,349 L113,349 L114,349 L111,350 L112,350 L113,350 L114,350 L115,350 L116,350 L110,351 L111,351 L109,352 L107,353" fill="none" stroke="#D4AF37" stroke-linecap="round" stroke-linejoin="round" stroke-width="1.3" style="stroke-dasharray: 1248; stroke-dashoffset: 1248; animation: draw-line 2s ease-out 1.2e+01s forwards; opacity: 0;" /><path d="M125,132 L123,133 L124,133 L126,133 L127,133 L121,134 L122,134 L128,134 L129,134 L121,135 L128,135 L121,136 L128,136 L120,137 L121,137 L122,137 L123,137 L124,137 L125,137 L126,137 L127,137 L128,137 M57,159 L58,159 L68,160 M105,175 L104,176 L106,176 L103,177 L105,177 L107,177 L102,178 L104,178 L106,178 L108,178 L100,179 L101,179 L103,179 L107,179 L109,179 L99,180 L102,180 L108,180 L110,180 L98,181 L100,181 L101,181 L109,181 L110,181 L97,182 L99,182 L109,182 L111,182 M96,183 L98,183 L109,183 L111,183 M95,184 L99,184 L100,184 L101,184 L102,184 L103,184 L104,184 L105,184 L106,184 L107,184 L108,184 L112,184 M95,185 M113,185 M94,186 L95,186 L96,186 L97,186 L98,186 L99,186 L100,186 L101,186 L102,186 L103,186 L104,186 L105,186 L106,186 L107,186 L108,186 L109,186 L110,186 L111,186 L112,186" fill="none" stroke="#D4AF37" stroke-linecap="round" stroke-linejoin="round" stroke-width="1.3" style="stroke-dasharray: 360; stroke-dashoffset: 360; animation: draw-line 2s ease-out 1.4e+01s forwards; opacity: 0;" /><path d="M105,178 L104,179 L106,179 L103,180 L105,180 L107,180 L102,181 L104,181 L106,181 L108,181 L100,182 L101,182 L105,182 L108,182 L99,183 L100,183 L101,183 L102,183 L103,183 L104,183 L105,183 L106,183 L107,183 L108,183" fill="none" stroke="#D4AF37" stroke-linecap="round" stroke-linejoin="round" stroke-width="1.3" style="stroke-dasharray: 96; stroke-dashoffset: 96; animation: draw-line 2s ease-out 1.7e+01s forwards; opacity: 0;" /><style type="text/css"><![CDATA[
@keyframes draw-line {
    0% { stroke-dashoffset: inherit; opacity: 0; }
    5% { opacity: 1; }
    100% { stroke-dashoffset: 0; opacity: 1; }
}
]]></style></svg>