<?xml version="1.0" encoding="utf-8" ?>
<svg baseProfile="full" height="380px" version="1.1" viewBox="0 0 280 380" width="280px" xmlns="http://www.w3.org/2000/svg" xmlns:ev="http://www.w3.org/2001/xml-events" xmlns:xlink="http://www.w3.org/1999/xlink"><defs /><path d="M135,6 L138,6 M134,7 L140,7 M134,8 L141,8 M134,9 L141,9 M134,10 L141,10 M133,11 L140,11 M132,12 L139,12 M132,13 L139,13 M132,14 L139,14 M132,15 L139,15 M133,16 L140,16 M133,17 L140,17 M133,18 L140,18 M133,19 L140,19 M133,20 L140,20 M133,21 L140,21 M133,22 L140,22 M133,23 L140,23 M133,24 L140,24 M133,25 L140,25 M132,26 L140,26 M132,27 L141,27 M131,28 L142,28 M130,29 L143,29 M128,30 L144,30 M127,31 L146,31 M126,32 L147,32 M125,33 L134,33 M138,33 L148,33 M125,34 L148,34 M124,35 L149,35 M123,36 L149,36 M123,37 L150,37 M123,38 L150,38 M123,39 L150,39 M123,40 L150,40 M123,41 L150,41 M123,42 L150,42 M123,43 L149,43 M124,44 L149,44 M124,45 L148,45 M125,46 L147,46 M126,47 L147,47 M126,48 L147,48 M126,49 L147,49 M126,50 L146,50 M127,51 L145,51 M128,52 L146,52 M128,53 L145,53 M128,54 L145,54 M129,55 L145,55 M128,56 L145,56 M128,57 L146,57 M127,58 L147,58 M127,59 L147,59 M126,60 L147,60 M126,61 L147,61 M126,62 L147,62 M165,62 L169,62 M126,63 L147,63 M164,63 L172,63 M127,64 L147,64 M164,64 L173,64 M127,65 L146,65 M164,65 L173,65 M126,66 L147,66 M164,66 L173,66 M126,67 L147,67 M164,67 L173,67 M126,68 L147,68 M164,68 L172,68 M126,69 L147,69 M163,69 L171,69 M126,70 L148,70 M162,70 L170,70 M126,71 L148,71 M162,71 L170,71 M125,72 L149,72 M162,72 L170,72 M125,73 L149,73" fill="none" stroke="#D4AF37" stroke-linecap="round" stroke-width="1.2" style="stroke-dasharray: 2590; stroke-dashoffset: 2590; animation: draw-line 0.8s ease-out 0.0s forwards;" /><path d="M162,73 L170,73 M125,74 L149,74 M163,74 L170,74 M124,75 L150,75 M165,75 L170,75 M123,76 L150,76 M165,76 L171,76 M123,77 L150,77 M165,77 L172,77 M123,78 L151,78 M165,78 L172,78 M123,79 L151,79 M164,79 L172,79 M123,80 L151,80 M164,80 L171,80 M123,81 L152,81 M164,81 L170,81 M122,82 L152,82 M164,82 L171,82 M121,83 L152,83 M164,83 L172,83 M121,84 L153,84 M163,84 L173,84 M121,85 L153,85 M163,85 L173,85 M120,86 L153,86 M163,86 L173,86 M120,87 L153,87 M163,87 L173,87 M120,88 L154,88 M163,88 L173,88 M120,89 L154,89 M163,89 L173,89 M64,90 L67,90 M119,90 L154,90 M163,90 L172,90 M63,91 L69,91 M119,91 L155,91 M164,91 L172,91 M63,92 L70,92 M119,92 L155,92 M164,92 L172,92 M63,93 L70,93 M118,93 L155,93 M164,93 L172,93 M63,94 L70,94 M118,94 L156,94 M163,94 L173,94 M63,95 L70,95 M118,95 L156,95 M163,95 L173,95 M62,96 L69,96 M118,96 L156,96 M163,96 L174,96 M61,97 L69,97 M117,97 L158,97 M162,97 L174,97 M61,98 L68,98 M115,98 L175,98 M61,99 L68,99 M114,99 L175,99 M61,100 L68,100 M113,100 L175,100 M62,101 L68,101 M113,101 L176,101 M63,102 L68,102 M113,102 L177,102 M63,103 L68,103 M113,103 L177,103 M62,104 L68,104 M113,104 L178,104 M62,105 L68,105 M113,105 L179,105 M62,106 L68,106 M112,106 L179,106 M62,107 L68,107 M112,107 L180,107 M62,108 L68,108 M110,108 L181,108 M61,109 L69,109" fill="none" stroke="#D4AF37" stroke-linecap="round" stroke-width="1.2" style="stroke-dasharray: 3810; stroke-dashoffset: 3810; animation: draw-line 0.8s ease-out 1.9s forwards;" /><path d="M109,109 L183,109 M60,110 L70,110 M109,110 L184,110 M60,111 L70,111 M109,111 L185,111 M60,112 L70,112 M109,112 L186,112 M218,112 L220,112 M60,113 L70,113 M109,113 L188,113 M217,113 L223,113 M60,114 L70,114 M109,114 L189,114 M216,114 L224,114 M60,115 L69,115 M108,115 L191,115 M216,115 L224,115 M61,116 L69,116 M105,116 L192,116 M216,116 L224,116 M61,117 L69,117 M103,117 L193,117 M215,117 L224,117 M60,118 L69,118 M102,118 L193,118 M214,118 L224,118 M60,119 L69,119 M102,119 L194,119 M214,119 L223,119 M59,120 L69,120 M102,120 L195,120 M214,120 L222,120 M59,121 L70,121 M102,121 L196,121 M214,121 L222,121 M58,122 L70,122 M103,122 L197,122 M215,122 L222,122 M58,123 L70,123 M106,123 L198,123 M217,123 L222,123 M57,124 L71,124 M107,124 L198,124 M217,124 L222,124 M57,125 L72,125 M107,125 L199,125 M217,125 L223,125 M56,126 L72,126 M107,126 L200,126 M216,126 L223,126 M55,127 L72,127 M106,127 L200,127 M216,127 L223,127 M54,128 L73,128 M106,128 L201,128 M216,128 L223,128 M52,129 L73,129 M106,129 L201,129 M216,129 L223,129 M51,130 L75,130 M106,130 L201,130 M216,130 L224,130 M50,131 L76,131 M101,131 L202,131 M215,131 L225,131 M49,132 L76,132 M100,132 L202,132 M215,132 L225,132 M49,133 L78,133 M100,133 L202,133 M215,133 L225,133 M47,134 L79,134 M99,134 L202,134 M215,134 L225,134 M46,135 L80,135 M98,135 L203,135 M215,135 L225,135 M46,136 L81,136 M98,136 L203,136 M216,136 L224,136" fill="none" stroke="#D4AF37" stroke-linecap="round" stroke-width="1.2" style="stroke-dasharray: 6540; stroke-dashoffset: 6540; animation: draw-line 0.8s ease-out 3.8s forwards;" /><path d="M44,137 L81,137 M98,137 L203,137 M217,137 L224,137 M43,138 L82,138 M98,138 L203,138 M217,138 L224,138 M42,139 L83,139 M99,139 L203,139 M216,139 L225,139 M42,140 L84,140 M100,140 L203,140 M216,140 L225,140 M42,141 L84,141 M100,141 L203,141 M216,141 L225,141 M41,142 L84,142 M100,142 L203,142 M216,142 L225,142 M40,143 L85,143 M99,143 L203,143 M216,143 L226,143 M40,144 L86,144 M99,144 L203,144 M215,144 L226,144 M40,145 L86,145 M99,145 L202,145 M215,145 L227,145 M39,146 L86,146 M99,146 L202,146 M215,146 L227,146 M38,147 L86,147 M99,147 L202,147 M214,147 L228,147 M38,148 L86,148 M98,148 L202,148 M214,148 L228,148 M38,149 L87,149 M98,149 L201,149 M213,149 L229,149 M38,150 L87,150 M98,150 L201,150 M213,150 L230,150 M38,151 L87,151 M98,151 L200,151 M212,151 L231,151 M38,152 L87,152 M99,152 L200,152 M211,152 L232,152 M38,153 L87,153 M99,153 L199,153 M210,153 L233,153 M38,154 L87,154 M99,154 L198,154 M209,154 L235,154 M38,155 L87,155 M99,155 L197,155 M208,155 L236,155 M38,156 L87,156 M98,156 L196,156 M207,156 L237,156 M39,157 L87,157 M98,157 L196,157 M206,157 L238,157 M39,158 L86,158 M98,158 L195,158 M205,158 L240,158 M39,159 L85,159 M98,159 L194,159 M204,159 L241,159 M39,160 L85,160 M97,160 L194,160 M203,160 L242,160 M40,161 L85,161 M97,161 L194,161 M202,161 L243,161 M41,162 L85,162 M96,162 L193,162 M201,162 L244,162 M41,163 L84,163 M95,163 L193,163" fill="none" stroke="#D4AF37" stroke-linecap="round" stroke-width="1.2" style="stroke-dasharray: 9146; stroke-dashoffset: 9146; animation: draw-line 0.8s ease-out 5.7s forwards;" /><path d="M200,163 L245,163 M41,164 L84,164 M94,164 L193,164 M199,164 L246,164 M41,165 L84,165 M93,165 L194,165 M198,165 L247,165 M41,166 L84,166 M91,166 L194,166 M198,166 L247,166 M41,167 L84,167 M90,167 L248,167 M42,168 L83,168 M89,168 L248,168 M43,169 L82,169 M88,169 L248,169 M43,170 L82,170 M87,170 L249,170 M44,171 L81,171 M85,171 L249,171 M44,172 L249,172 M44,173 L249,173 M44,174 L249,174 M43,175 L249,175 M43,176 L249,176 M43,177 L249,177 M44,178 L249,178 M44,179 L249,179 M44,180 L249,180 M44,181 L249,181 M44,182 L249,182 M44,183 L248,183 M43,184 L248,184 M38,185 L247,185 M37,186 L246,186 M37,187 L176,187 M180,187 L245,187 M37,188 L245,188 M37,189 L245,189 M37,190 L245,190 M37,191 L244,191 M36,192 L244,192 M31,193 L243,193 M30,194 L242,194 M30,195 L242,195 M30,196 L242,196 M30,197 L242,197 M29,198 L242,198 M29,199 L242,199 M29,200 L242,200 M29,201 L242,201 M28,202 L242,202 M28,203 L242,203 M28,204 L242,204 M28,205 L242,205 M28,206 L242,206 M27,207 L242,207 M27,208 L242,208 M26,209 L242,209 M25,210 L242,210 M24,211 L242,211 M24,212 L242,212 M24,213 L243,213 M24,214 L246,214 M24,215 L247,215 M25,216 L248,216 M27,217 L249,217 M27,218 L249,218 M27,219 L250,219 M27,220 L250,220 M28,221 L250,221 M28,222 L250,222 M28,223 L250,223 M28,224 L250,224 M28,225 L250,225 M28,226 L251,226 M28,227 L252,227 M29,228 L253,228 M30,229 L253,229 M29,230 L253,230" fill="none" stroke="#D4AF37" stroke-linecap="round" stroke-width="1.2" style="stroke-dasharray: 28636; stroke-dashoffset: 28636; animation: draw-line 0.8s ease-out 7.6s forwards;" /><path d="M29,231 L253,231 M29,232 L252,232 M29,233 L252,233 M29,234 L94,234 M100,234 L251,234 M29,235 L251,235 M29,236 L251,236 M29,237 L251,237 M29,238 L251,238 M29,239 L251,239 M259,239 L262,239 M29,240 L251,240 M258,240 L263,240 M28,241 L251,241 M258,241 L264,241 M28,242 L251,242 M258,242 L264,242 M28,243 L101,243 M107,243 L251,243 M258,243 L265,243 M28,244 L104,244 M108,244 L209,244 M213,244 L251,244 M258,244 L265,244 M28,245 L251,245 M258,245 L265,245 M28,246 L251,246 M257,246 L265,246 M28,247 L251,247 M257,247 L265,247 M28,248 L251,248 M257,248 L265,248 M28,249 L252,249 M257,249 L266,249 M28,250 L252,250 M258,250 L266,250 M28,251 L252,251 M258,251 L266,251 M28,252 L252,252 M258,252 L266,252 M28,253 L216,253 M221,253 L252,253 M258,253 L266,253 M28,254 L252,254 M257,254 L267,254 M27,255 L72,255 M76,255 L252,255 M257,255 L267,255 M26,256 L72,256 M76,256 L252,256 M257,256 L267,256 M24,257 L72,257 M76,257 L252,257 M256,257 L268,257 M22,258 L72,258 M76,258 L252,258 M256,258 L268,258 M21,259 L71,259 M76,259 L269,259 M21,260 L71,260 M77,260 L269,260 M21,261 L71,261 M77,261 L270,261 M21,262 L71,262 M77,262 L270,262 M22,263 L71,263 M77,263 L270,263 M23,264 L61,264 M65,264 L71,264 M77,264 L271,264 M24,265 L61,265 M65,265 L70,265 M77,265 L271,265 M24,266 L61,266 M65,266 L70,266 M78,266 L271,266 M23,267 L272,267 M23,268 L272,268 M23,269 L273,269 M23,270 L273,270" fill="none" stroke="#D4AF37" stroke-linecap="round" stroke-width="1.2" style="stroke-dasharray: 18760; stroke-dashoffset: 18760; animation: draw-line 0.8s ease-out 9.5s forwards;" /><path d="M24,271 L273,271 M24,272 L274,272 M19,273 L274,273 M16,274 L275,274 M15,275 L103,275 M107,275 L120,275 M124,275 L275,275 M13,276 L103,276 M107,276 L120,276 M124,276 L275,276 M12,277 L103,277 M107,277 L276,277 M12,278 L276,278 M12,279 L102,279 M106,279 L276,279 M12,280 L100,280 M105,280 L277,280 M13,281 L100,281 M104,281 L277,281 M14,282 L279,282 M14,283 L279,283 M14,284 L279,284 M14,285 L279,285 M14,286 L243,286 M247,286 L279,286 M15,287 L243,287 M248,287 L279,287 M14,288 L244,288 M248,288 L279,288 M13,289 L279,289 M13,290 L279,290 M13,291 L279,291 M13,292 L279,292 M14,293 L279,293 M14,294 L64,294 M68,294 L279,294 M14,295 L65,295 M69,295 L279,295 M12,296 L65,296 M69,296 L279,296 M11,297 L65,297 M69,297 L279,297 M11,298 L65,298 M69,298 L279,298 M11,299 L64,299 M69,299 L111,299 M120,299 L279,299 M11,300 L64,300 M70,300 L111,300 M119,300 L279,300 M11,301 L64,301 M71,301 L111,301 M118,301 L279,301 M12,302 L64,302 M72,302 L111,302 M117,302 L128,302 M134,302 L279,302 M13,303 L63,303 M75,303 L111,303 M116,303 L125,303 M137,303 L231,303 M238,303 L279,303 M13,304 L63,304 M75,304 L130,304 M139,304 L164,304 M168,304 L232,304 M239,304 L279,304 M13,305 L63,305 M73,305 L164,305 M168,305 L233,305 M239,305 L279,305 M13,306 L62,306 M72,306 L234,306 M239,306 L279,306 M14,307 L62,307 M72,307 L182,307 M189,307 L219,307 M226,307 L235,307 M239,307 L279,307 M14,308 L62,308" fill="none" stroke="#D4AF37" stroke-linecap="round" stroke-width="1.2" style="stroke-dasharray: 19282; stroke-dashoffset: 19282; animation: draw-line 0.8s ease-out 1.1e+01s forwards;" /><path d="M72,308 L100,308 M104,308 L182,308 M189,308 L217,308 M228,308 L279,308 M13,309 L99,309 M104,309 L182,309 M189,309 L216,309 M230,309 L279,309 M13,310 L99,310 M105,310 L121,310 M128,310 L183,310 M189,310 L217,310 M229,310 L279,310 M13,311 L100,311 M105,311 L120,311 M137,311 L183,311 M189,311 L217,311 M227,311 L279,311 M13,312 L100,312 M105,312 L120,312 M141,312 L183,312 M190,312 L217,312 M226,312 L279,312 M12,313 L24,313 M30,313 L100,313 M106,313 L120,313 M143,313 L183,313 M190,313 L217,313 M225,313 L279,313 M12,314 L24,314 M30,314 L100,314 M106,314 L111,314 M115,314 L120,314 M143,314 L183,314 M190,314 L217,314 M224,314 L279,314 M12,315 L24,315 M31,315 L99,315 M106,315 L111,315 M115,315 L120,315 M143,315 L183,315 M190,315 L216,315 M223,315 L279,315 M12,316 L24,316 M31,316 L99,316 M106,316 L111,316 M115,316 L120,316 M143,316 L183,316 M190,316 L216,316 M223,316 L245,316 M249,316 L279,316 M12,317 L24,317 M31,317 L99,317 M106,317 L111,317 M115,317 L120,317 M143,317 L183,317 M190,317 L216,317 M223,317 L245,317 M250,317 L279,317 M13,318 L23,318 M31,318 L99,318 M106,318 L111,318 M115,318 L120,318 M143,318 L183,318 M190,318 L216,318 M223,318 L245,318 M250,318 L279,318 M13,319 L23,319 M31,319 L99,319 M105,319 L111,319 M115,319 L120,319 M143,319 L216,319 M223,319 L245,319 M251,319 L279,319 M12,320 L23,320 M31,320 L99,320 M105,320 L111,320 M115,320 L120,320 M143,320 L216,320 M223,320 L245,320" fill="none" stroke="#D4AF37" stroke-linecap="round" stroke-width="1.2" style="stroke-dasharray: 5704; stroke-dashoffset: 5704; animation: draw-line 0.8s ease-out 1.3e+01s forwards;" /><path d="M251,320 L279,320 M12,321 L23,321 M27,321 L99,321 M105,321 L111,321 M115,321 L120,321 M143,321 L216,321 M223,321 L228,321 M232,321 L245,321 M251,321 L279,321 M12,322 L99,322 M105,322 L110,322 M115,322 L120,322 M143,322 L216,322 M223,322 L228,322 M232,322 L245,322 M251,322 L279,322 M12,323 L100,323 M105,323 L110,323 M115,323 L120,323 M143,323 L216,323 M223,323 L228,323 M232,323 L245,323 M252,323 L279,323 M12,324 L100,324 M105,324 L120,324 M143,324 L217,324 M223,324 L228,324 M232,324 L245,324 M252,324 L279,324 M12,325 L101,325 M105,325 L120,325 M143,325 L217,325 M223,325 L228,325 M232,325 L245,325 M252,325 L279,325 M12,326 L101,326 M105,326 L120,326 M143,326 L217,326 M223,326 L228,326 M232,326 L246,326 M252,326 L258,326 M262,326 L279,326 M11,327 L120,327 M143,327 L217,327 M223,327 L228,327 M232,327 L246,327 M252,327 L279,327 M11,328 L120,328 M143,328 L217,328 M223,328 L228,328 M232,328 L246,328 M252,328 L279,328 M11,329 L49,329 M57,329 L88,329 M94,329 L121,329 M143,329 L217,329 M223,329 L228,329 M232,329 L246,329 M251,329 L268,329 M276,329 L279,329 M11,330 L121,330 M143,330 L217,330 M223,330 L228,330 M232,330 L246,330 M251,330 L267,330 M277,330 L279,330 M11,331 L218,331 M223,331 L228,331 M232,331 L246,331 M251,331 L267,331 M9,332 L218,332 M223,332 L267,332 M0,333 L268,333 M0,334 L268,334 M0,335 L279,335 M0,336 L279,336 M0,337 L279,337 M0,338 L279,338 M0,339 L279,339 M0,340 L279,340" fill="none" stroke="#D4AF37" stroke-linecap="round" stroke-width="1.2" style="stroke-dasharray: 10022; stroke-dashoffset: 10022; animation: draw-line 0.8s ease-out 1.5e+01s forwards;" /><path d="M0,341 L279,341 M0,342 L279,342 M0,343 L279,343 M0,344 L279,344 M0,345 L279,345 M0,346 L279,346 M0,347 L279,347 M0,348 L279,348 M0,349 L279,349 M0,350 L279,350 M0,351 L279,351 M0,352 L279,352 M0,353 L279,353 M0,354 L279,354 M0,355 L279,355 M0,356 L26,356 M35,356 L279,356 M0,357 L31,357 M35,357 L279,357 M0,358 L279,358 M0,359 L260,359 M0,360 L237,360 M0,361 L222,361 M0,362 L203,362 M0,363 L179,363 M0,364 L156,364 M4,365 L140,365 M20,366 L128,366 M23,367 L109,367 M26,368 L95,368 M28,369 L79,369 M31,370 L60,370 M34,371 L42,371" fill="none" stroke="#D4AF37" stroke-linecap="round" stroke-width="1.2" style="stroke-dasharray: 13572; stroke-dashoffset: 13572; animation: draw-line 0.8s ease-out 1.7e+01s forwards;" /><style type="text/css"><![CDATA[
@keyframes draw-line {
    0% { stroke-dashoffset: var(--path-length); opacity: 0; }
    10% { opacity: 1; }
    100% { stroke-dashoffset: 0; opacity: 1; }
}
]]></style><rect fill="none" height="380" width="280" x="0" y="0" /></svg>